<?xml version="1.0" encoding="UTF-8" standalone="no"?>
<svg
   xmlns:dc="http://purl.org/dc/elements/1.1/"
   xmlns:cc="http://creativecommons.org/ns#"
   xmlns:rdf="http://www.w3.org/1999/02/22-rdf-syntax-ns#"
   xmlns:svg="http://www.w3.org/2000/svg"
   xmlns="http://www.w3.org/2000/svg"
   viewBox="0 0 4056 2636.3999"
   height="2636.3999"
   width="4056"
   xml:space="preserve"
   id="svg2"
   version="1.1"><metadata
     id="metadata8"><rdf:RDF><cc:Work
         rdf:about=""><dc:format>image/svg+xml</dc:format><dc:type
           rdf:resource="http://purl.org/dc/dcmitype/StillImage" /></cc:Work></rdf:RDF></metadata><defs
     id="defs6" /><g
     transform="matrix(1.3333333,0,0,-1.3333333,0,2636.4)"
     id="g10"><g
       transform="scale(0.1)"
       id="g12"><g
         transform="scale(1.86626)"
         id="g14"><path
           id="path16"
           style="fill:#ffffff;fill-opacity:1;fill-rule:nonzero;stroke:none"
           d="M 16300,0 H 0 V 10595 H 16300 V 0" /></g><path
         id="path18"
         style="fill:#f9eddc;fill-opacity:1;fill-rule:nonzero;stroke:none"
         d="M 10221.1,9667.4 H 4102.2 c -343.98,0 -622.82,-278.9 -622.82,-622.9 V 2925.7 c 0,-344 278.84,-622.8 622.82,-622.8 h 6118.9 c 343.9,0 622.8,278.8 622.8,622.8 v 6118.8 c 0,344 -278.9,622.9 -622.8,622.9" /><path
         id="path20"
         style="fill:#ffffff;fill-opacity:1;fill-rule:nonzero;stroke:none"
         d="m 6793.11,10345.1 11.34,-299.2 c 0,-183.22 -94.17,-362.9 -208.15,-506.2 -95.22,-119.8 -145.87,-276.5 -126.65,-445.4 31.41,-276.1 254.84,-498.9 531.01,-529.5 364.43,-40.3 672.89,243.9 672.89,600.2 0,139.5 -47.42,267.8 -126.94,369.9 -113.8,146.1 -214.83,325.68 -214.83,510.9 l 12.17,300 c 5.43,134.3 111.23,240.5 243.17,250.4 l -1019.17,-1.7 c 123.67,-17.9 220.29,-120.9 225.16,-249.4" /><path
         id="path22"
         style="fill:#f6c19a;fill-opacity:1;fill-rule:nonzero;stroke:none"
         d="m 6889.4,2107.3 28.22,35.9 5.1,-4.6 z" /><path
         id="path24"
         style="fill:#f9eddc;fill-opacity:1;fill-rule:nonzero;stroke:none"
         d="m 7014.63,2207.6 8.19,-216.1 c 0,-132.2 -67.98,-261.9 -150.27,-365.4 -68.73,-86.5 -105.3,-199.6 -91.42,-321.5 22.67,-199.3 183.97,-360.198 383.34,-382.202 263.07,-29.199 485.75,176.002 485.75,433.202 0,100.7 -34.23,193.3 -91.64,267 -82.15,105.5 -155.08,235.1 -155.08,368.9 l 8.78,216.6 c 3.92,96.9 80.3,173.6 175.54,180.7 l -735.72,-1.3 c 89.27,-12.9 159.02,-87.3 162.53,-179.9" /><path
         id="path26"
         style="fill:#2c2655;fill-opacity:1;fill-rule:nonzero;stroke:none"
         d="m 4756.46,7358.4 c -56.77,-148.2 -84.82,-312.5 -180.77,-437.5 -82.36,-106.8 -206.12,-172.8 -296.66,-272.5 -90.54,-99.7 -140.74,-265 -51.92,-371.6 42.13,-50.6 107.19,-77.1 149.23,-127.5 118.38,-142.1 -8.17,-342.1 -56.6,-516.9 -54.28,-195.8 7.73,-423.1 155.01,-568.5 105.82,-104.5 260.91,-186.3 280.43,-332.9 15.19,-115.5 -64.94,-234.6 -18.59,-342.3 68.09,-158.1 312.65,-115.4 441.52,-229.3 90.68,-80.3 100.43,-215.1 140.12,-329.3 73.97,-213.2 280.11,-375.7 500.88,-395 118.01,-10.3 241.81,16 351.58,-31.9 141.69,-61.9 224.04,-233.4 372.79,-272.5 309.23,-80.9 382.2,288.1 593.05,483 265.17,245.5 777.5,208.5 896.29,554 27.92,81 30.26,178.5 93.41,235 64.16,57.5 166.91,48.5 236.96,98.5 131.3,93.9 76.02,318.7 133.86,463.2 9.1,12.2 55.91,83.5 66.25,90.5 543.56,788.7 629.74,1733.9 131.38,2340.3 -412.82,502.5 -1128.27,651.6 -1859.43,464.7 -6.55,6 -10.23,12.7 -17,18.6 -160.12,140 -357.63,177.2 -563.95,166.5 -378.59,-19.6 -497.25,-364.3 -809.96,-426.1 -119.64,-23.5 -241.39,54.7 -363.31,46.7 -158.03,-10.1 -267.84,-159.1 -324.57,-307.2" /><path
         id="path28"
         style="fill:#ff9985;fill-opacity:1;fill-rule:nonzero;stroke:none"
         d="m 8835.29,5599.6 c -89.02,19.9 -110.54,87.3 -114.52,142.5 l 233.8,-34.5 c 11.23,-130.6 -119.28,-108 -119.28,-108 z m 42.8,791.1 c 0,-49.9 -26.35,-90.4 -58.8,-90.4 -32.47,0 -58.8,40.5 -58.8,90.4 0,50 26.33,90.5 58.8,90.5 h 100.02 l -48.29,-48.3 c 4.34,-12.7 7.07,-26.9 7.07,-42.2 z m 54.16,142.7 h -191.73 c -28.02,0 -50.93,23 -50.93,51 0,28 22.91,50.9 50.93,50.9 h 191.73 c 28.02,0 50.93,-22.9 50.93,-50.9 0,-28 -22.91,-51 -50.93,-51 z m 303.96,-483.7 -153.39,357.8 -1.05,-4.9 0.51,102.6 c 0.52,112.8 -24.24,218.1 -61.65,316.6 -48.22,127 -108.13,267.5 -200.63,362.1 -34.02,45.4 -72.75,88 -115.65,127 -4.68,-30.8 -14.67,-65.8 -28.36,-102.7 -76.33,-206 -234.1,-371.6 -429.73,-471.3 -184.44,-94.1 -377.81,-212.2 -404.04,-357.1 -9.61,1.6 -18.03,6.9 -27.95,6.9 -98.75,0.5 -182.68,-77.4 -211.07,-185.2 -2.19,-8.3 -4.04,-16.8 -5.56,-25.4 -3.01,-17.3 -4.63,-35.1 -4.72,-53.4 -0.53,-110.3 54.95,-204.9 134.27,-245.2 0,0 95.72,-313.7 -186.15,-518.6 -0.08,-0.1 -1.34,1.2 -2.41,2.2 -73.37,-273.4 -319.98,-1206.3 -319.98,-1206.3 -23.09,-87.4 28.85,-158.5 116.05,-159.1 l 379.97,-2.3 c 84.59,-0.5 171.6,67 195.5,151.7 l 230.27,815 c 14.63,51.8 49.48,98.3 92.46,132.3 35.94,38 87.36,60 143.72,53.3 494.81,-58.7 700.31,264.6 702.27,667.1 l 0.42,82.2 95.55,26.7 c 54.98,15.3 83.83,75.5 61.35,128" /><path
         id="path30"
         style="fill:#ffffff;fill-opacity:1;fill-rule:nonzero;stroke:none"
         d="m 8720.77,5742.1 c 3.98,-55.2 25.5,-122.6 114.52,-142.5 0,0 130.51,-22.6 119.28,108 l -233.8,34.5" /><path
         id="path32"
         style="fill:#2c2655;fill-opacity:1;fill-rule:nonzero;stroke:none"
         d="m 8932.25,6635.3 h -191.73 c -28.02,0 -50.93,-22.9 -50.93,-50.9 0,-28 22.91,-51 50.93,-51 h 191.73 c 28.02,0 50.93,23 50.93,51 0,28 -22.91,50.9 -50.93,50.9" /><path
         id="path34"
         style="fill:#2c2655;fill-opacity:1;fill-rule:nonzero;stroke:none"
         d="m 7727.19,5877.5 c -79.32,40.3 -134.8,134.9 -134.27,245.2 0.09,18.3 1.71,36.1 4.72,53.4 1.52,8.6 3.37,17.1 5.56,25.4 28.39,107.8 112.32,185.7 211.07,185.2 9.92,0 18.34,-5.3 27.95,-6.9 26.23,144.9 219.6,263 404.04,357.1 195.63,99.7 353.4,265.3 429.73,471.3 13.69,36.9 23.68,71.9 28.36,102.7 2.01,13.3 3.33,26 3.06,37.4 -2.66,113.7 -487.2,258.2 -600.74,265.3 -559.8,34.8 -1667.07,-333.3 -892.69,-1864.6 63.88,-126.3 148.58,-231 251.59,-309.8 0.9,-0.7 61.63,-67 73.06,-78.1 1.07,-1 2.33,-2.3 2.41,-2.2 281.87,204.9 186.15,518.6 186.15,518.6" /><path
         id="path36"
         style="fill:#2c2655;fill-opacity:1;fill-rule:nonzero;stroke:none"
         d="m 8819.29,6481.2 c -32.47,0 -58.8,-40.5 -58.8,-90.5 0,-49.9 26.33,-90.4 58.8,-90.4 32.45,0 58.8,40.5 58.8,90.4 0,15.3 -2.73,29.5 -7.07,42.2 l 48.29,48.3 h -100.02" /><path
         id="path38"
         style="fill:#ffffff;fill-opacity:1;fill-rule:nonzero;stroke:none"
         d="m 5881.09,2599.8 c -145.85,225.8 -354.06,809.6 591.98,1622.2 410.78,309.2 1007.08,568 1638.65,207.7 55.92,-31.9 106.27,-72.8 153.38,-116.6 456.99,-425.6 617.78,-571 656.57,-1302.3 11.81,-222.9 -165.04,-411 -388.28,-411 h -2652.3" /><path
         id="path40"
         style="fill:#ffffff;fill-opacity:1;fill-rule:nonzero;stroke:none"
         d="m 5907.12,2599.8 c -203.75,0 -343.82,207.6 -264.65,395.3 149.59,354.8 343.64,708.2 589.59,991.9 155.59,209.5 514.52,94.9 749.91,-63.1 407.98,-274.2 363.03,-573.6 51.75,-1324.1 h -1126.6" /><path
         id="path42"
         style="fill:#b6e4fc;fill-opacity:1;fill-rule:nonzero;stroke:none"
         d="m 6858.33,10022.6 8.19,-216.1 c 0,-132.2 -67.98,-261.9 -150.27,-365.4 -68.74,-86.5 -105.29,-199.6 -91.42,-321.5 22.67,-199.3 183.97,-360.2 383.33,-382.2 263.09,-29.2 485.76,176 485.76,433.2 0,100.7 -34.24,193.3 -91.63,267.1 -82.16,105.5 -155.1,235.1 -155.1,368.77 l 8.79,216.63 c 3.93,96.9 80.29,173.6 175.54,180.7 l -735.73,-1.2 c 89.28,-13 159.03,-87.3 162.54,-180" /><path
         id="path44"
         style="fill:#b6e4fc;fill-opacity:1;fill-rule:nonzero;stroke:none"
         d="m 3555.28,13865.5 -216.07,-8.2 c -132.22,0 -261.91,68 -365.42,150.2 -86.47,68.8 -199.58,105.4 -321.51,91.5 -199.3,-22.7 -360.13,-184 -382.2,-383.4 -29.12,-263 176.05,-485.7 433.24,-485.7 100.71,0 193.33,34.2 267.05,91.6 105.49,82.2 235.1,155.1 368.82,155.1 l 216.59,-8.8 c 96.93,-3.9 173.62,-80.3 180.76,-175.5 l -1.29,735.7 c -12.9,-89.3 -87.28,-159 -179.97,-162.5" /><g
         transform="scale(1.07536)"
         id="g46"><path
           id="path48"
           style="fill:#b6e4fc;fill-opacity:1;fill-rule:nonzero;stroke:none"
           d="M 9461.17,16300 H 3771.11 c -319.87,0 -579.17,-259.3 -579.17,-579.2 v -5690 c 0,-319.88 259.3,-579.18 579.17,-579.18 h 5690.06 c 319.81,0 579.13,259.3 579.13,579.18 v 5690 c 0,319.9 -259.32,579.2 -579.13,579.2" /></g><path
         id="path50"
         style="fill:#ffffff;fill-opacity:1;fill-rule:nonzero;stroke:none"
         d="m 8904.81,10918.4 v 189.3 c 0,792.6 -671.24,1441.1 -1491.66,1441.1 h -775.33 c -764.79,0 -1390.53,-604.5 -1390.53,-1343.4 v -287 c 0,-192.3 161.3,-348.1 360.28,-348.1 h 2936.97 c 198.98,0 360.27,155.8 360.27,348.1" /><path
         id="path52"
         style="fill:#ffffff;fill-opacity:1;fill-rule:nonzero;stroke:none"
         d="m 7151.08,11938.2 c -211,0 -381.76,171.5 -380.82,382.5 l 0.53,120.3 c -130.05,-85.3 -220.69,-206.1 -144.93,-337 154.44,-266.8 76.78,-141.8 353.47,-558.7 37.33,-56.2 98.48,-82.9 158.41,-79.9 59.98,-3 121.14,23.7 158.47,79.9 276.69,416.9 198.98,291.9 353.44,558.7 70.25,121.4 -2.63,234 -117.29,317.8 l -0.46,-104.5 c -0.94,-209.7 -171.16,-379.1 -380.82,-379.1" /><path
         id="path54"
         style="fill:#1e2960;fill-opacity:1;fill-rule:nonzero;stroke:none"
         d="m 8210.14,15348.4 c 22.18,67.7 24.98,151.7 -23.34,202 -54.03,56.3 -146.12,45.8 -207.79,92.6 -47.74,36.2 -68.31,99.4 -102.59,149.8 -64.07,94.3 -183.9,142.2 -291.08,116.4 -57.52,-13.9 -115.97,-47 -172.26,-28.4 -80.05,26.5 -124.43,148.8 -207.33,135.6 -56.47,-9.1 -85.56,-78.4 -137.42,-103.7 -65.71,-32 -139.15,15.4 -209.31,34.1 -97.72,26 -207.84,-9.2 -275.32,-88.2 -60.25,-70.5 -111.05,-183.3 -200.06,-169.4 -31.68,5 -59.19,27 -90.85,31.9 -66.84,10.5 -122.7,-58.2 -141.02,-126.8 -18.33,-68.6 -14.3,-142.8 -37.7,-209.7 -27.42,-78.1 -88.55,-136.5 -135.64,-203.3 -47.06,-66.9 -80.94,-157.9 -45.02,-232.1 27.71,-57.3 91.1,-90.5 111.69,-151 53.87,-158.4 -59.05,-307.9 29.07,-484.3 32.01,-64.1 72.75,-119.4 125.41,-159.2 30.58,97.5 108.74,166.9 200.25,166.4 6.56,0 12.99,-0.5 19.38,-1.2 l 0.75,153.5 c 0.42,86.5 47.83,166 123.79,207.6 l 674.68,369 c 289.5,158.3 658.63,-28.3 680.87,-357.5 1.43,-21.2 2.11,-42.7 2,-64.3 l -1.56,-324.1 c 35.9,-16.5 67.12,-44.3 90.61,-79.9 43.17,35.1 86.64,69.8 90.13,123.2 2.94,45.6 -26.85,89.5 -19.29,134.5 7.4,44.2 47.29,72.4 73.78,107.5 113.14,149.8 -32.41,370.8 2.09,558.9 12.94,70.3 50.91,132.4 73.08,200.1" /><path
         id="path56"
         style="fill:#ffffff;fill-opacity:1;fill-rule:nonzero;stroke:none"
         d="m 7170.27,13571 c 0,0 255.04,-32.9 233.09,157.4 l -456.88,50.2 c 7.78,-80.5 49.85,-178.5 223.79,-207.6" /><path
         id="path58"
         style="fill:#1e2960;fill-opacity:1;fill-rule:nonzero;stroke:none"
         d="m 6657.24,14552.2 c 0,-29.1 20.08,-53 44.6,-53 h 167.91 c 24.53,0 44.59,23.9 44.59,53 0,29.2 -20.06,53.1 -44.59,53.1 h -167.91 c -24.52,0 -44.6,-23.9 -44.6,-53.1" /><path
         id="path60"
         style="fill:#1e2960;fill-opacity:1;fill-rule:nonzero;stroke:none"
         d="m 7738.11,14625 c 22.66,0 41.22,23.9 41.22,53.1 0,29.2 -18.56,53.1 -41.22,53.1 h -155.19 c -22.67,0 -41.22,-23.9 -41.22,-53.1 0,-29.2 18.55,-53.1 41.22,-53.1 h 155.19" /><path
         id="path62"
         style="fill:#f9764a;fill-opacity:1;fill-rule:nonzero;stroke:none"
         d="m 7346.42,14081.8 c -4.93,-40.4 -28.13,-76.5 -64.72,-88.4 l -89.27,-29 c -30.74,-10 -58.68,6.2 -75.16,32.8 l -1.85,-10.1 c -11.14,-60.8 37.16,-113.7 88.59,-97 l 89.28,29 c 53.43,17.4 81.51,85.6 59.65,144.9 l -6.52,17.8" /><path
         id="path64"
         style="fill:#1e2960;fill-opacity:1;fill-rule:nonzero;stroke:none"
         d="m 6813.7,14269.6 c 32.98,0 59.72,41.1 59.72,91.8 0,50.8 -26.74,91.9 -59.72,91.9 -32.98,0 -59.7,-41.1 -59.7,-91.9 0,-50.7 26.72,-91.8 59.7,-91.8" /><path
         id="path66"
         style="fill:#1e2960;fill-opacity:1;fill-rule:nonzero;stroke:none"
         d="m 7695.06,14361.4 c 0,50.8 -26.73,91.9 -59.71,91.9 -32.96,0 -59.7,-41.1 -59.7,-91.9 0,-50.7 26.74,-91.8 59.7,-91.8 32.98,0 59.71,41.1 59.71,91.8" /><path
         id="path68"
         style="fill:#ff9985;fill-opacity:1;fill-rule:nonzero;stroke:none"
         d="m 7575.65,14361.4 c 0,50.8 26.74,91.9 59.7,91.9 32.98,0 59.71,-41.1 59.71,-91.9 0,-50.7 -26.73,-91.8 -59.71,-91.8 -32.96,0 -59.7,41.1 -59.7,91.8 z m -33.95,316.7 c 0,29.2 18.55,53.1 41.22,53.1 h 155.19 c 22.66,0 41.22,-23.9 41.22,-53.1 0,-29.2 -18.56,-53.1 -41.22,-53.1 h -155.19 c -22.67,0 -41.22,23.9 -41.22,53.1 z m -728,-224.8 c 32.98,0 59.72,-41.1 59.72,-91.9 0,-50.7 -26.74,-91.8 -59.72,-91.8 -32.98,0 -59.7,41.1 -59.7,91.8 0,50.8 26.72,91.9 59.7,91.9 z m -111.86,152 h 167.91 c 24.53,0 44.59,-23.9 44.59,-53.1 0,-29.1 -20.06,-53 -44.59,-53 h -167.91 c -24.52,0 -44.6,23.9 -44.6,53 0,29.2 20.08,53.1 44.6,53.1 z m 591.45,-686.2 -89.28,-29 c -51.43,-16.7 -99.73,36.2 -88.59,97 l 1.85,10.1 c 16.48,-26.6 44.42,-42.8 75.16,-32.8 l 89.27,29 c 36.59,11.9 59.79,48 64.72,88.4 l 6.52,-17.8 c 21.86,-59.3 -6.22,-127.5 -59.65,-144.9 z M 7170.27,13571 c -173.94,29.1 -216.01,127.1 -223.79,207.6 l 456.88,-50.2 c 21.95,-190.3 -233.09,-157.4 -233.09,-157.4 z m 729.47,733.1 1.56,324.1 c 0.11,21.6 -0.57,43.1 -2,64.3 -22.24,329.2 -391.37,515.8 -680.87,357.5 l -674.68,-369 c -75.96,-41.6 -123.37,-121.1 -123.79,-207.6 l -0.75,-153.5 c -6.39,0.7 -12.82,1.2 -19.38,1.2 -91.51,0.5 -169.67,-68.9 -200.25,-166.4 -8.7,-27.7 -13.75,-57.7 -13.91,-89.1 -0.69,-141.6 94.07,-256.9 211.68,-257.5 11.76,-0.1 23.23,1.3 34.48,3.5 41.17,-227.6 168.81,-421.2 342.67,-538.5 l -3.71,-832.1 -0.53,-120.3 c -0.94,-211 169.82,-382.5 380.82,-382.5 209.66,0 379.88,169.4 380.82,379.1 l 0.46,104.5 3.78,848.8 c 177.69,118.2 307.63,315.8 348.15,548.3 87.54,31.5 151.63,128.9 152.22,244.7 0.29,60.7 -17.07,116.5 -46.16,160.6 -23.49,35.6 -54.71,63.4 -90.61,79.9" /><path
         id="path70"
         style="fill:#ffffff;fill-opacity:1;fill-rule:nonzero;stroke:none"
         d="m 11163,13900.6 -23.5,-0.8 c -183.1,0 -362.8,94.1 -506.2,208.1 -119.8,95.2 -276.4,145.9 -445.4,126.7 -276.02,-31.5 -498.81,-254.9 -529.39,-531.1 -40.34,-364.4 243.88,-672.8 600.19,-672.8 139.5,0 267.8,47.4 369.9,126.9 146.1,113.8 325.7,214.8 510.9,214.8 l 23.5,-0.9 v 529.1" /><g
         transform="scale(1.09047)"
         id="g72"><path
           id="path74"
           style="fill:#ffffff;fill-opacity:1;fill-rule:nonzero;stroke:none"
           d="m 6378.09,16133.8 7.51,-198.2 c 0,-121.2 -62.35,-240.2 -137.81,-335.1 -63.03,-79.3 -96.56,-183 -83.83,-294.8 20.8,-182.8 168.71,-330.3 351.54,-350.5 241.25,-26.7 445.45,161.4 445.45,397.3 0,92.3 -31.39,177.3 -84.03,244.9 -75.35,96.7 -142.23,215.6 -142.23,338.2 l 8.05,198.6 c 3.61,88.9 73.65,159.2 160.98,165.8 l -674.68,-1.2 c 81.86,-11.8 145.83,-80 149.05,-165" /></g><g
         transform="scale(1.14921)"
         id="g76"><path
           id="path78"
           style="fill:#fbe9dc;fill-opacity:1;fill-rule:nonzero;stroke:none"
           d="m 15758.1,15188.9 h -5324.5 c -299.2,0 -541.92,-242.6 -541.92,-541.9 V 9322.56 c 0,-299.31 242.72,-541.95 541.92,-541.95 h 5324.5 c 299.3,0 541.9,242.64 541.9,541.95 V 14647 c 0,299.3 -242.6,541.9 -541.9,541.9" /></g><g
         transform="scale(1.07782)"
         id="g80"><path
           id="path82"
           style="fill:#ffd176;fill-opacity:1;fill-rule:nonzero;stroke:none"
           d="m 12423.6,9744.57 h 1270.7 c 14.3,82.95 38.4,154.55 91.3,193.94 49,36.41 114.8,37.77 179.9,33.8 195.7,-11.92 401.9,-66.6 590.4,-51.53 643.8,51.41 346.1,764.42 399.6,1123.52 75.5,506.5 636,413.6 935.8,679.9 408.7,363.3 299,1395.6 7.9,2142 -153.6,393.5 -273,633.8 -545.7,641.6 -208.1,6 -214.9,-16.8 -436.1,130.8 -149.8,100 -260.6,192.7 -417.5,231 -442.4,107.9 -844,-54.2 -1068.5,-431.2 -137.6,-231.3 -210.8,-536.3 -368.6,-742.4 -250.5,-327 -675.4,-361.2 -1009.3,-555.6 -876.8,-510.4 -986.2,-2110.9 -395.6,-2996 0.8,-1.2 1.5,-2.4 2.4,-3.7 169.4,-251.95 459.6,-396.13 763.3,-396.13" /></g><g
         transform="scale(1.07048)"
         id="g84"><path
           id="path86"
           style="fill:#ffffff;fill-opacity:1;fill-rule:nonzero;stroke:none"
           d="m 16300,10127.9 v 175 c 0,733 -635.3,1332.8 -1411.8,1332.8 h -733.8 c -723.8,0 -1316.1,-559.1 -1316.1,-1242.4 v -265.4 c 0,-177.82 152.6,-321.94 341,-321.94 H 15959 c 188.4,0 341,144.12 341,321.94" /></g><path
         id="path88"
         style="fill:#ffb288;fill-opacity:1;fill-rule:nonzero;stroke:none"
         d="m 16230.3,15528.2 h -6.4 c 17.9,-11.4 40,-23.8 65.3,-36.8 -10.9,21.7 -33.1,36.8 -58.9,36.8" /><path
         id="path90"
         style="fill:#ffffff;fill-opacity:1;fill-rule:nonzero;stroke:none"
         d="m 15670,13631.6 c 0,0 197,-25.4 180.1,121.6 l -353.1,38.8 c 6.1,-62.2 38.6,-137.9 173,-160.4" /><path
         id="path92"
         style="fill:#fbe9dc;fill-opacity:1;fill-rule:nonzero;stroke:none"
         d="m 15420,14691.2 c 0,31.5 -21.7,57.3 -48.1,57.3 h -181.2 c -26.5,0 -48.2,-25.8 -48.2,-57.3 0,-31.5 21.7,-57.3 48.2,-57.3 h 181.2 c 26.4,0 48.1,25.8 48.1,57.3" /><g
         transform="scale(1.00328)"
         id="g94"><path
           id="path96"
           style="fill:#fbe9dc;fill-opacity:1;fill-rule:nonzero;stroke:none"
           d="m 16255.6,14586 c 24.5,0 44.4,25.7 44.4,57.1 0,31.4 -19.9,57.1 -44.4,57.1 h -166.9 c -24.4,0 -44.4,-25.7 -44.4,-57.1 0,-31.4 20,-57.1 44.4,-57.1 h 166.9" /></g><path
         id="path98"
         style="fill:#f9764a;fill-opacity:1;fill-rule:nonzero;stroke:none"
         d="m 15886.3,14183.5 c -5.3,-43.6 -30.4,-82.6 -69.8,-95.4 l -96.4,-31.3 c -33.2,-10.8 -63.3,6.7 -81.1,35.4 l -2,-10.9 c -12,-65.6 40.1,-122.7 95.6,-104.6 l 96.4,31.3 c 57.6,18.7 87.9,92.3 64.3,156.3 l -7,19.2" /><path
         id="path100"
         style="fill:#693523;fill-opacity:1;fill-rule:nonzero;stroke:none"
         d="m 15311.4,14386.2 c 35.6,0 64.4,44.3 64.4,99.1 0,54.7 -28.8,99.1 -64.4,99.1 h -109.6 l 52.9,-52.9 c -4.8,-13.9 -7.7,-29.4 -7.7,-46.2 0,-54.8 28.8,-99.1 64.4,-99.1" /><g
         transform="scale(1.00047)"
         id="g102"><path
           id="path104"
           style="fill:#693523;fill-opacity:1;fill-rule:nonzero;stroke:none"
           d="m 16254.8,14478.5 c 0,16.7 -2.9,32.3 -7.7,46.1 l 52.9,52.9 h -109.5 c -35.6,0 -64.4,-44.3 -64.4,-99 0,-54.8 28.8,-99.1 64.4,-99.1 35.5,0 64.3,44.3 64.3,99.1" /></g><g
         transform="scale(1.02034)"
         id="g106"><path
           id="path108"
           style="fill:#ffa27f;fill-opacity:1;fill-rule:nonzero;stroke:none"
           d="m 15812,14196.5 c 0,53.6 28.3,97.1 63.1,97.1 h 107.5 l -51.9,-51.8 c 4.7,-13.6 7.6,-28.9 7.6,-45.3 0,-53.7 -28.3,-97.2 -63.2,-97.2 -34.8,0 -63.1,43.5 -63.1,97.2 z m -35.9,201.8 c 0,30.9 19.6,56.1 43.6,56.1 h 164.1 c 24,0 43.6,-25.2 43.6,-56.1 0,-30.9 -19.6,-56.2 -43.6,-56.2 h -164.1 c -24,0 -43.6,25.3 -43.6,56.2 z m -877.4,-104.7 h 107.4 c 34.9,0 63.1,-43.5 63.1,-97.1 0,-53.7 -28.2,-97.2 -63.1,-97.2 -34.9,0 -63.1,43.5 -63.1,97.2 0,16.4 2.8,31.7 7.6,45.3 z m -58.1,104.7 c 0,30.9 21.3,56.1 47.2,56.1 h 177.6 c 25.9,0 47.2,-25.2 47.2,-56.1 0,-30.9 -21.3,-56.2 -47.2,-56.2 h -177.6 c -25.9,0 -47.2,25.3 -47.2,56.2 z m 517,-1038.5 c -131.7,22 -163.6,96.3 -169.6,157.2 l 346.1,-38 c 16.5,-144.1 -176.5,-119.2 -176.5,-119.2 z m 155.8,368.9 -94.5,-30.7 c -54.4,-17.7 -105.4,38.2 -93.7,102.5 l 2,10.7 c 17.4,-28.1 46.9,-45.3 79.5,-34.7 l 94.4,30.7 c 38.7,12.5 63.3,50.8 68.5,93.5 l 6.8,-18.8 c 23.1,-62.8 -6.5,-134.9 -63,-153.2 z m 786,152.7 c 0.6,116.2 -59.6,215.3 -144.6,254.4 l 1.6,342.8 c 0.9,170.6 -44.5,329.2 -122.2,463.3 -106.2,-9 -215.9,-10.4 -243.1,-12.2 -569,-37.1 -901.2,-366.9 -1026.2,-556.7 -103.1,-156.5 -158.4,-341.7 -265.1,-495.6 -35.7,-51.3 -76.9,-98.5 -122.6,-140.9 39.7,-75 109.2,-124.9 188.6,-125.3 12.4,-0.1 24.5,1.4 36.4,3.7 43.6,-240.6 178.4,-445.2 362.2,-569.3 l -4.9,-1017.4 c -99.9,-84 -161.7,-199.7 -161.7,-327.6 0,-256.5 248.5,-464.4 555,-464.4 306.5,0 555.1,207.9 555.1,464.4 0,119.4 -54.4,228 -142.9,310.3 l 5,1031.7 c 188.1,124.9 325.6,334 368.5,580 92.5,33.4 160.3,136.4 160.9,258.8" /></g><g
         transform="scale(1.01837)"
         id="g110"><path
           id="path112"
           style="fill:#ffd176;fill-opacity:1;fill-rule:nonzero;stroke:none"
           d="m 14527.9,13904.2 c 106.9,154.2 162.3,339.8 265.6,496.6 125.2,190.2 458.1,520.6 1028.1,557.8 27.3,1.7 137.2,3.2 243.6,12.2 109.4,9.1 215.3,26.2 224.1,59.7 10.7,40.6 -172.2,118.4 -294,181.4 -24.8,12.8 -46.5,24.9 -64.1,36.1 -21.4,13.6 -36.4,25.7 -39.9,35.4 -5.4,14.6 -11.3,29.9 -23.3,39.8 -10.8,8.9 -24.8,12 -38.5,15 -118.1,25.3 -236.2,50.7 -354.3,76 -162.5,34.9 -325.7,69.8 -491.4,78.9 -137.8,7.6 -284.6,-165.4 -396.5,-247 -180.9,-131.8 -209.6,-227.3 -308,-429.7 -134.8,-277.4 -413.1,-468.7 -522.2,-757.5 -52.4,-138.8 -52.9,-316.1 56.9,-414.9 120.2,-108.3 312.3,-71.2 450.4,12.4 50.4,30.5 97.4,66.5 140.6,106.6 45.8,42.5 87.1,89.8 122.9,141.2" /></g><path
         id="path114"
         style="fill:#fbe9dc;fill-opacity:1;fill-rule:nonzero;stroke:none"
         d="m 11307.8,13826.4 -216.1,-8.2 c -132.2,0 -261.9,68 -365.4,150.3 -86.5,68.7 -199.6,105.3 -321.5,91.4 -199.3,-22.7 -360.2,-184 -382.2,-383.3 -29.16,-263.1 176,-485.8 433.2,-485.8 100.7,0 193.3,34.2 267.1,91.6 105.5,82.2 235.1,155.1 368.8,155.1 l 216.6,-8.8 c 96.9,-3.9 173.6,-80.3 180.7,-175.5 l -1.3,735.7 c -12.9,-89.2 -87.2,-159 -179.9,-162.5" /><g
         transform="scale(1.15827)"
         id="g116"><path
           id="path118"
           style="fill:#fbe9dc;fill-opacity:1;fill-rule:nonzero;stroke:none"
           d="m 13110.8,15165.3 -7.1,186.5 c 0,114.2 58.7,226.1 129.8,315.5 59.4,74.7 90.9,172.3 78.9,277.6 -19.5,172.1 -158.8,310.9 -330.9,330 -227.2,25.1 -419.5,-152 -419.5,-374.1 0,-86.9 29.6,-166.9 79.2,-230.5 70.9,-91.1 133.9,-203 133.9,-318.5 l -7.6,-187 c -3.4,-83.7 -69.3,-149.9 -151.6,-156 l 635.3,1.1 c -77.1,11.1 -137.4,75.3 -140.4,155.4" /></g><path
         id="path120"
         style="fill:#ffffff;fill-opacity:1;fill-rule:nonzero;stroke:none"
         d="m 3628.65,5799.8 216.06,8.2 c 132.23,0 261.91,-68 365.42,-150.3 86.48,-68.7 199.59,-105.3 321.52,-91.4 199.3,22.6 360.12,183.9 382.19,383.3 29.13,263.1 -176.04,485.8 -433.23,485.8 -100.71,0 -193.32,-34.3 -267.05,-91.7 -105.5,-82.1 -235.11,-155.1 -368.82,-155.1 l -216.59,8.8 c -96.94,3.9 -173.62,80.3 -180.76,175.6 l 1.28,-735.8 c 12.9,89.3 87.28,159.1 179.98,162.6" /><g
         transform="scale(1.64188)"
         id="g122"><path
           id="path124"
           style="fill:#b6e4fc;fill-opacity:1;fill-rule:nonzero;stroke:none"
           d="m 15920.7,10644.9 h -3726.8 c -209.5,0 -379.3,-169.8 -379.3,-379.3 V 6538.86 c 0,-209.51 169.8,-379.34 379.3,-379.34 h 3726.8 c 209.4,0 379.3,169.83 379.3,379.34 v 3726.74 c 0,209.5 -169.9,379.3 -379.3,379.3" /></g><g
         transform="scale(1.64255)"
         id="g126"><path
           id="path128"
           style="fill:#ffffff;fill-opacity:1;fill-rule:nonzero;stroke:none"
           d="m 16189.6,8341.59 -131.5,-4.98 c -80.5,0 -159.5,41.38 -222.5,91.48 -52.7,41.85 -121.5,64.11 -195.7,55.66 -121.4,-13.8 -219.3,-112 -232.7,-233.37 -17.7,-160.18 107.1,-295.74 263.7,-295.74 61.3,0 117.8,20.84 162.6,55.79 64.3,50.01 143.2,94.42 224.6,94.42 l 131.8,-5.35 c 59,-2.39 105.7,-48.89 110.1,-106.88 l -0.8,447.93 c -7.8,-54.36 -53.1,-96.82 -109.6,-98.96" /></g><g
         transform="scale(1.44167)"
         id="g130"><path
           id="path132"
           style="fill:#ffffff;fill-opacity:1;fill-rule:nonzero;stroke:none"
           d="m 15859.1,12043.4 5.7,-149.9 c 0,-91.7 -47.2,-181.7 -104.2,-253.5 -47.7,-59.9 -73.1,-138.4 -63.4,-223 15.7,-138.2 127.6,-249.8 265.8,-265.1 182.5,-20.2 337,122.1 337,300.5 0,69.9 -23.7,134.1 -63.5,185.3 -57.1,73.1 -107.6,163 -107.6,255.8 l 6.1,150.2 c 2.7,67.2 55.7,120.4 121.7,125.4 l -510.3,-0.9 c 61.9,-8.9 110.3,-60.5 112.7,-124.8" /></g><g
         transform="scale(1.51437)"
         id="g134"><path
           id="path136"
           style="fill:#ffffff;fill-opacity:1;fill-rule:nonzero;stroke:none"
           d="m 14703.6,6951.66 c -101.8,0 -183.2,84.35 -179,186.1 1.3,30.32 2,61.82 1.5,94.62 -3.6,215.91 307.2,978.68 576.9,982.77 292.5,4.45 942.4,-218.01 1067.3,-521.65 91.1,-221.44 111.9,-441.42 124.1,-603.01 5.6,-75.13 -53.8,-138.83 -129.2,-138.83 h -1461.6" /></g><g
         transform="scale(1.42679)"
         id="g138"><path
           id="path140"
           style="fill:#ffb288;fill-opacity:1;fill-rule:nonzero;stroke:none"
           d="m 16300,9840.88 c -0.6,-1.62 -1.5,-3.08 -2.2,-4.68 0.7,1.6 1.6,3.05 2.2,4.68" /></g><g
         transform="scale(1.42579)"
         id="g142"><path
           id="path144"
           style="fill:#ffb288;fill-opacity:1;fill-rule:nonzero;stroke:none"
           d="m 16300,9824.68 c -0.7,-1.25 -1.6,-2.32 -2.4,-3.54 0.8,1.22 1.7,2.3 2.4,3.54" /></g><g
         transform="scale(1.42455)"
         id="g146"><path
           id="path148"
           style="fill:#ffb288;fill-opacity:1;fill-rule:nonzero;stroke:none"
           d="m 16300,9812.37 c -0.7,-0.9 -1.5,-1.67 -2.2,-2.54 0.7,0.87 1.5,1.64 2.2,2.54" /></g><g
         transform="scale(1.42752)"
         id="g150"><path
           id="path152"
           style="fill:#ffb288;fill-opacity:1;fill-rule:nonzero;stroke:none"
           d="m 16300,9860.71 c -0.5,-1.89 -1.3,-3.64 -1.8,-5.5 0.5,1.87 1.3,3.61 1.8,5.5" /></g><g
         transform="scale(1.4231)"
         id="g154"><path
           id="path156"
           style="fill:#ffb288;fill-opacity:1;fill-rule:nonzero;stroke:none"
           d="m 16300,9804.06 c -0.7,-0.68 -1.5,-1.23 -2.2,-1.9 0.7,0.67 1.5,1.22 2.2,1.9" /></g><g
         transform="scale(1.42147)"
         id="g158"><path
           id="path160"
           style="fill:#ffb288;fill-opacity:1;fill-rule:nonzero;stroke:none"
           d="m 16300,9799.94 c -0.8,-0.62 -1.8,-1.09 -2.7,-1.69 0.9,0.6 1.9,1.07 2.7,1.69" /></g><g
         transform="scale(1.42798)"
         id="g162"><path
           id="path164"
           style="fill:#ffb288;fill-opacity:1;fill-rule:nonzero;stroke:none"
           d="m 16299.2,9879.95 c 0.2,1.37 0.7,2.67 0.8,4.06 -0.1,-1.39 -0.6,-2.69 -0.8,-4.06" /></g><g
         transform="scale(1.40483)"
         id="g166"><path
           id="path168"
           style="fill:#ff9985;fill-opacity:1;fill-rule:nonzero;stroke:none"
           d="m 15643.3,10412.4 h 140.6 c 20.5,0 37.3,-16.1 37.3,-35.7 0,-19.6 -16.8,-35.6 -37.3,-35.6 h -140.6 c -20.6,0 -37.4,16 -37.4,35.6 0,19.6 16.8,35.7 37.4,35.7 z m -15.8,-149.6 c 0,35 19.3,63.3 43.1,63.3 23.8,0 43.1,-28.3 43.1,-63.3 0,-35 -19.3,-63.4 -43.1,-63.4 -23.8,0 -43.1,28.4 -43.1,63.4 z m 111.4,-416.18 c 215.7,2.48 420.5,95.97 485.1,313.28 l 76,255.4 c -28.5,34.7 -61.6,68.9 -96.9,100.9 -16.6,-7.3 -32,-14.5 -45.3,-21.2 -48.5,-24.3 -112.8,-25.4 -173,-1.1 -142.3,57.4 -273.6,152.9 -378.1,244.3 -34.3,-54.4 -60.9,-115.9 -83.8,-173.6 -27.4,-68.9 -45.6,-142.7 -45.2,-221.7 l 6.6,-81.1 -116.4,-259.4 c -18,-39.89 5,-85.69 48.8,-97.34 l 99.2,-26.42 c 19.7,-4.93 139.7,-32.98 223,-32.02" /></g><g
         transform="scale(1.42813)"
         id="g170"><path
           id="path172"
           style="fill:#ff9985;fill-opacity:1;fill-rule:nonzero;stroke:none"
           d="m 16299.9,9910.75 c -0.3,79.88 -45.3,147.45 -107.6,171.95 l 12.1,-340.07 c 5.8,2.92 11.4,6.28 16.9,9.96 0.9,0.59 1.9,1.06 2.7,1.68 5.8,4.04 11.2,8.59 16.4,13.41 0.8,0.66 1.6,1.21 2.3,1.89 5.1,4.84 9.8,10.17 14.2,15.69 0.8,0.87 1.6,1.64 2.3,2.53 4.2,5.42 8.1,11.29 11.7,17.28 0.8,1.21 1.7,2.28 2.4,3.53 3.4,5.84 6.3,12.05 9.1,18.34 0.7,1.6 1.6,3.06 2.3,4.68 2.6,6.23 4.6,12.79 6.5,19.4 0.6,1.86 1.4,3.61 1.9,5.49 1.9,7.25 3.3,14.77 4.4,22.37 0.2,1.38 0.6,2.67 0.7,4.07 1.2,9.07 1.8,18.35 1.7,27.8" /></g><g
         transform="scale(1.45336)"
         id="g174"><path
           id="path176"
           style="fill:#ff9985;fill-opacity:1;fill-rule:nonzero;stroke:none"
           d="m 15925.4,9451.49 c -4.6,-140.26 -44,-285.5 -133.2,-386.37 -50.4,-57.04 -170.9,-155.02 -234.4,-194.97 -0.5,-0.34 -1.1,-0.57 -1.6,-0.9 l 121.1,-475.36 c 13.6,-53.34 70.4,-96.8 126.2,-96.53 l 406.1,1.89 c 55.9,0.27 90.4,44.13 76.8,97.49 l -218.3,857.34 c -90,64.22 -127.9,137.3 -142.7,197.41" /></g><g
         transform="scale(1.36357)"
         id="g178"><path
           id="path180"
           style="fill:#452a51;fill-opacity:1;fill-rule:nonzero;stroke:none"
           d="m 16116.7,10654 h 144.8 c 21.2,0 38.5,16.5 38.5,36.7 0,20.2 -17.3,36.8 -38.5,36.8 h -144.8 c -21.2,0 -38.5,-16.6 -38.5,-36.8 0,-20.2 17.3,-36.7 38.5,-36.7" /></g><g
         transform="scale(1.4727)"
         id="g182"><path
           id="path184"
           style="fill:#2c2655;fill-opacity:1;fill-rule:nonzero;stroke:none"
           d="m 14875.5,9302.57 163.6,23.05 c -2.8,-36.93 -17.9,-81.91 -80.2,-95.22 0,0 -91.3,-15.12 -83.4,72.17 z m 924.5,255.64 c -0.5,-1.83 -1.3,-3.52 -1.8,-5.33 -1.9,-6.4 -3.9,-12.77 -6.4,-18.81 -0.6,-1.57 -1.5,-2.99 -2.2,-4.53 -2.7,-6.11 -5.5,-12.13 -8.8,-17.79 -0.7,-1.21 -1.5,-2.25 -2.3,-3.43 -3.5,-5.8 -7.3,-11.49 -11.4,-16.75 -0.7,-0.87 -1.4,-1.61 -2.2,-2.46 -4.3,-5.35 -8.9,-10.52 -13.8,-15.22 -0.7,-0.65 -1.5,-1.18 -2.2,-1.83 -5,-4.67 -10.3,-9.08 -15.9,-13 -0.8,-0.6 -1.8,-1.05 -2.6,-1.63 -5.3,-3.57 -10.8,-6.82 -16.4,-9.66 l -11.7,329.74 c 60.3,-23.75 104,-89.24 104.3,-166.7 0.1,-9.17 -0.5,-18.17 -1.6,-26.96 -0.1,-1.36 -0.6,-2.61 -0.8,-3.95 -1,-7.37 -2.3,-14.66 -4.2,-21.69 z m 95.8,-403.95 c 72,52.64 132.3,122.14 176,206.92 173.7,336.57 204.5,577.03 153,747.92 58.6,41.9 75.2,114.2 -65.2,238.5 -305,270.1 -835,440.2 -1023.6,389.8 -146.2,-39 -294.3,-200.1 -397.1,-251 -33.9,-16.8 -35.9,-60.2 -6,-92.6 38.6,-41.7 91.6,-95.3 154.6,-150.5 99.7,-87.1 225,-178.2 360.7,-233 57.4,-23.16 118.8,-22.07 165.1,1.1 12.6,6.3 27.3,13.2 43.1,20.2 33.7,-30.6 65.3,-63.14 92.5,-96.22 l -72.5,-243.65 c -61.6,-207.32 -257,-296.5 -462.8,-298.86 -79.5,-0.92 -193.9,25.84 -212.7,30.37 -1.7,0.41 -2.9,0.71 -2.9,0.71 l 38.3,-447.52 c 18.3,-119.93 152.6,-249.79 267.5,-256.37 121.9,-6.98 194.2,-0.49 248.1,32.7 0.5,0.32 1.1,0.55 1.5,0.88 62.7,39.42 181.6,136.12 231.4,192.42 88,99.54 126.9,242.87 131.4,381.28 14.6,-59.32 52,-131.44 140.8,-194.81 1.7,-1.23 3.1,-2.51 4.9,-3.74 0.7,-0.48 33.2,24.98 33.9,25.47" /></g><g
         transform="scale(1.35431)"
         id="g186"><path
           id="path188"
           style="fill:#452a51;fill-opacity:1;fill-rule:nonzero;stroke:none"
           d="m 16300,10645.7 c 0,36.3 -20,65.7 -44.7,65.7 -24.8,0 -44.8,-29.4 -44.8,-65.7 0,-36.3 20,-65.7 44.8,-65.7 24.7,0 44.7,29.4 44.7,65.7" /></g><g
         transform="scale(1.35877)"
         id="g190"><path
           id="path192"
           style="fill:#ffffff;fill-opacity:1;fill-rule:nonzero;stroke:none"
           d="m 16213.2,10004.3 c 67.4,14.5 83.8,63.2 86.8,103.2 l -177.3,-25 c -8.5,-94.56 90.5,-78.2 90.5,-78.2" /></g><g
         transform="scale(1.46313)"
         id="g194"><path
           id="path196"
           style="fill:#ffffff;fill-opacity:1;fill-rule:nonzero;stroke:none"
           d="m 16147.8,8445.67 -449.9,-203.74 -20.4,-95.21 c -17.1,-79.78 66,-143.73 138.7,-106.74 l 483.8,281.51 -152.2,124.18" /></g><g
         transform="scale(1.40909)"
         id="g198"><path
           id="path200"
           style="fill:#ffffff;fill-opacity:1;fill-rule:nonzero;stroke:none"
           d="m 16128.4,8800.52 171.6,-242.49 -132,-129.73 c -38.3,-37.58 -102.9,-10.77 -103.3,42.85 l -2.2,289.86 65.9,39.51" /></g><g
         transform="scale(1.50247)"
         id="g202"><path
           id="path204"
           style="fill:#ffffff;fill-opacity:1;fill-rule:nonzero;stroke:none"
           d="m 15581.9,7006.73 c 6,209.46 9.1,423.14 13.9,593.68 4.3,153.05 330.3,251.94 471.1,178.73 215.2,-111.79 233.1,-263.57 229.6,-519.87 -1.2,-85.12 -5.7,-169.11 -12,-252.54 h -702.6" /></g><g
         transform="scale(1.64168)"
         id="g206"><path
           id="path208"
           style="fill:#f9eddc;fill-opacity:1;fill-rule:nonzero;stroke:none"
           d="m 15920.6,5853.03 h -1581.2 c 4.7,-6.28 9.2,-12.67 14,-18.77 48.4,-62.19 77.3,-140.34 77.3,-225.31 0,-217.04 -187.9,-390.15 -409.8,-365.6 -168.3,18.64 -304.4,154.35 -323.5,322.47 -11.7,102.94 19.2,198.33 77.1,271.31 4.1,5.17 8,10.6 12,15.9 h -1593.1 c -209.5,0 -379.3,-169.83 -379.3,-379.37 V 1746.5 c 0,-209.54 169.8,-379.36 379.3,-379.36 h 3727.2 c 209.5,0 379.4,169.82 379.4,379.36 v 3727.16 c 0,209.54 -169.9,379.37 -379.4,379.37" /></g><g
         transform="scale(1.45341)"
         id="g210"><path
           id="path212"
           style="fill:#ffffff;fill-opacity:1;fill-rule:nonzero;stroke:none"
           d="m 15471.7,6286.8 c 21.6,-189.9 175.4,-343.2 365.4,-364.25 250.7,-27.73 462.9,167.81 462.9,412.96 0,95.98 -32.6,184.26 -87.3,254.5 -5.4,6.88 -10.5,14.11 -15.8,21.2 h -624.6 c -4.5,-5.99 -8.8,-12.11 -13.5,-17.96 -65.5,-82.43 -100.3,-190.17 -87.1,-306.45" /></g><g
         transform="scale(1.72877)"
         id="g214"><path
           id="path216"
           style="fill:#f9eddc;fill-opacity:1;fill-rule:nonzero;stroke:none"
           d="m 15539.7,3291.64 125.1,4.69 c 76.4,0 151.4,-39.28 211.3,-86.88 50.1,-39.8 115.5,-60.92 186,-52.93 115.3,13.13 208.3,106.43 221.1,221.77 16.8,152.19 -101.8,280.95 -250.6,280.95 -58.3,0 -111.8,-19.78 -154.5,-52.98 -61,-47.49 -136,-89.72 -213.3,-89.72 l -125.3,5.09 c -56.1,2.26 -100.5,46.45 -104.6,101.52 l 0.7,-425.56 c 7.5,51.65 50.5,91.97 104.1,94.05" /></g><g
         transform="scale(1.39131)"
         id="g218"><path
           id="path220"
           style="fill:#ffffff;fill-opacity:1;fill-rule:nonzero;stroke:none"
           d="m 15957.1,1957.58 -658,-1.22 c -153.6,-0.29 -276.2,161.35 -251.9,332.77 16.8,118.88 35.1,241.57 54.7,368.79 85.7,477.32 649.8,595.12 956.8,648.53 241.3,41.97 102.7,-446.35 35.1,-900.45 -19.3,-57.86 -72.2,-226.76 -136.7,-448.42" /></g><g
         transform="scale(1.47236)"
         id="g222"><path
           id="path224"
           style="fill:#ffffff;fill-opacity:1;fill-rule:nonzero;stroke:none"
           d="m 14826.5,1849.35 c 17.7,419.19 59.2,834.38 138.4,1244.13 54.2,21.94 113.1,45.78 148.7,60.38 1,0.34 1.8,0.74 2.8,1.08 315.9,128.98 593.9,177.61 1183.6,68.74 -65.1,-461.78 -124,-918.19 -169.7,-1371.82 l -1303.8,-2.51" /></g><g
         transform="scale(1.4878)"
         id="g226"><path
           id="path228"
           style="fill:#452a51;fill-opacity:1;fill-rule:nonzero;stroke:none"
           d="m 16259.9,4378.22 c -22.9,44.22 -51.8,90.33 -44.2,140.88 4.7,30.71 22.5,58.54 30.5,88.72 19.7,73.53 -20.7,146.19 -64.8,205.2 0,0 -67,453.29 -537.7,510.28 -11.8,1.42 -23.4,2.36 -34.9,3.23 -8.1,6.05 -16.8,10.76 -26,12.97 -26.1,6.26 -48.6,-6.38 -72.2,-11.76 -8.4,-0.47 -16.6,-1.14 -24.8,-1.82 -3.9,0.41 -7.7,0.95 -11.7,2.22 -27.8,8.94 -49.6,38.25 -76.7,51.29 -65.7,31.45 -109.8,-45.51 -175.6,-42.68 -44.5,1.95 -91.9,40.46 -135.1,37.57 -45.3,-3.03 -66.1,-49.54 -75.9,-93.63 -9.8,-44.09 -16.6,-93.96 -51.5,-117.42 -21.2,-14.25 -49.9,-16.33 -73.3,-27.56 -56.8,-27.42 -70.9,-101.96 -74.6,-171.46 -4.5,-86.84 0.5,-177.17 12.7,-267.51 4.3,-31.59 6.4,-55.11 32.6,-79.78 -16.9,-0.74 -31.2,-14.52 -32,-31.46 -0.8,-17.47 12.9,-31.66 30.3,-31.66 h 7.7 l 112.1,0.21 c 17.4,0 32.4,14.31 33.2,31.72 0.8,17.48 -12.8,31.73 -30.3,31.66 l -111.6,-0.2 c 8,85.09 35.3,164.87 77.1,235.18 60.1,28.03 179.7,62.31 371.9,26.21 293.6,-55.12 179,-397.7 502.8,-452.82 l 106,22.79 c 72.2,-5.45 126.5,-77.3 122.8,-165.75 -2.7,-66.67 -37.7,-124.28 -85.8,-151.43 l -10.9,-262.47 c 7.6,19.22 15.7,37.98 32.1,50.01 24.6,18.15 58.7,14.45 85.5,28.7 65,34.48 42.9,136.24 88.8,193.77 31,38.92 88.4,51.09 115.4,92.76 28.2,43.62 11,99.74 -11.9,144.04" /></g><g
         transform="scale(1.46501)"
         id="g230"><path
           id="path232"
           style="fill:#ff9985;fill-opacity:1;fill-rule:nonzero;stroke:none"
           d="m 15534.4,4657.57 c 0.8,17.75 16.1,32.29 33.8,32.29 l 121.6,0.2 c 17.8,0 31.6,-14.4 30.8,-32.15 -0.9,-17.68 -16,-32.22 -33.8,-32.22 l -121.5,-0.2 c -17.9,-0.07 -31.7,14.4 -30.9,32.08 z m -97.7,-616.85 c 0,0 -87.6,-14.54 -110.3,68.12 l 223.3,22.18 c -5.4,-35.01 -27.9,-77.61 -113,-90.3 z m -129.3,317.2 5.1,10.78 c 2.3,-24.43 17.7,-46.35 43.3,-53.51 l 62.4,-17.48 c 21.5,-6.07 41.7,3.89 54.2,20 l 1,-6.14 c 6.2,-36.86 -29.5,-68.94 -65.5,-58.91 l -62.4,17.48 c -37.3,10.51 -55.3,51.8 -38.1,87.78 z m 313.1,174.6 c 1.4,31.54 19.3,57.2 39.8,57.2 20.7,0.07 36.2,-25.52 34.7,-57.06 -1.4,-31.6 -19.3,-57.27 -39.9,-57.27 -20.6,-0.07 -36.1,25.53 -34.6,57.13 z m -420.9,-49.21 c -20.6,0 -36.1,25.53 -34.7,57.13 1.5,31.6 19.4,57.2 40,57.27 20.6,0 36.1,-25.6 34.6,-57.13 -1.5,-31.61 -19.4,-57.2 -39.9,-57.27 z m 1009.5,-287.65 c 48.9,27.58 84.4,86.08 87.2,153.79 3.7,89.83 -51.4,162.8 -124.7,168.33 l -107.7,-23.14 c -328.8,55.97 -212.4,403.88 -510.6,459.86 -195.2,36.65 -316.7,1.84 -377.7,-26.62 -42.5,-71.4 -70.2,-152.42 -78.3,-238.84 l 113.4,0.2 c 17.7,0.07 31.6,-14.4 30.7,-32.15 -0.8,-17.67 -16,-32.21 -33.7,-32.21 l -113.8,-0.21 -17,-407.71 c -12.5,-302.93 170.8,-528.25 465.8,-526.27 9.9,0.06 19.9,1.02 29.9,1.57 l -16.7,-401.84 c -41.6,-20.75 -67.2,-68.47 -55.1,-115.97 l 110.9,-435.36 c 19,-74.06 113.4,-94.47 167.1,-36.04 l 347.9,378.43 c 7.6,6.41 14.5,13.65 20.1,21.91 l 27.7,30.03 c 40.7,44.3 33.3,105.8 -3.6,139.04 l 27.2,656.65 11,266.55" /></g><g
         transform="scale(1.39758)"
         id="g234"><path
           id="path236"
           style="fill:#ffffff;fill-opacity:1;fill-rule:nonzero;stroke:none"
           d="m 16181.5,4235.69 c 89.3,13.31 112.8,57.96 118.5,94.66 l -234.1,-23.25 c 23.8,-86.65 115.6,-71.41 115.6,-71.41" /></g><g
         transform="scale(1.41301)"
         id="g238"><path
           id="path240"
           style="fill:#452a51;fill-opacity:1;fill-rule:nonzero;stroke:none"
           d="m 16299.2,4829.33 c 0.8,18.4 -13.6,33.33 -32,33.33 l -126.1,-0.21 c -18.4,0 -34.2,-15.07 -35,-33.47 -0.9,-18.34 13.5,-33.34 32,-33.27 l 126,0.21 c 18.4,0 34.1,15.08 35.1,33.41" /></g><g
         transform="scale(1.36983)"
         id="g242"><path
           id="path244"
           style="fill:#2c2655;fill-opacity:1;fill-rule:nonzero;stroke:none"
           d="m 16261.4,4917.18 c -22,-0.07 -41.1,-27.44 -42.7,-61.24 -1.6,-33.8 15,-61.1 37.1,-61.1 21.9,0.07 41.1,27.44 42.7,61.24 1.5,33.73 -15.1,61.1 -37.1,61.1" /></g><g
         transform="scale(1.41077)"
         id="g246"><path
           id="path248"
           style="fill:#2c2655;fill-opacity:1;fill-rule:nonzero;stroke:none"
           d="m 16257,4647.47 c 21.5,0 40,26.66 41.5,59.48 1.5,32.74 -14.6,59.32 -36,59.25 -21.3,0 -39.9,-26.65 -41.4,-59.4 -1.6,-32.82 14.5,-59.4 35.9,-59.33" /></g><g
         transform="scale(1.39128)"
         id="g250"><path
           id="path252"
           style="fill:#fa694f;fill-opacity:1;fill-rule:nonzero;stroke:none"
           d="m 16224.5,4478.05 c 37.9,-10.57 75.5,23.21 69,62.03 l -1.1,6.47 c -13.1,-16.97 -34.4,-27.46 -57,-21.06 l -65.7,18.4 c -27,7.54 -43.2,30.62 -45.7,56.35 l -5.3,-11.36 c -18.1,-37.88 0.8,-81.36 40.1,-92.43 l 65.7,-18.4" /></g><g
         transform="scale(1.55748)"
         id="g254"><path
           id="path256"
           style="fill:#ffffff;fill-opacity:1;fill-rule:nonzero;stroke:none"
           d="m 15248.7,1750.64 c 43.2,428.84 98.9,860.3 160.4,1296.84 37.6,-6.74 75.3,-14.06 113.2,-21.83 180.1,-36.98 642.6,-220.81 714.6,-434.1 63.1,-186.84 56.3,-377.92 18.3,-579.85 -28.7,-153.06 -145.4,-259.39 -284.2,-259.64 l -722.3,-1.42" /></g><g
         transform="scale(1.35179)"
         id="g258"><path
           id="path260"
           style="fill:#ffffff;fill-opacity:1;fill-rule:nonzero;stroke:none"
           d="m 15816.5,2012.96 c 72.5,454.88 189.2,892.07 347.5,1302.27 0,0 64.2,25.74 136,54.67 -86.7,-446.89 -132.4,-899.7 -152.2,-1356.94 h -331.3" /></g><g
         transform="scale(1.44519)"
         id="g262"><path
           id="path264"
           style="fill:#ffffff;fill-opacity:1;fill-rule:nonzero;stroke:none"
           d="m 15860.2,1669.61 5.7,149.46 c 0,91.54 -47,181.22 -104,252.91 -47.6,59.78 -72.8,138.04 -63.3,222.46 15.7,137.9 127.3,249.17 265.3,264.46 182.1,20.14 336.1,-121.85 336.1,-299.82 0,-69.68 -23.7,-133.75 -63.4,-184.75 -56.9,-73 -107.3,-162.68 -107.3,-255.19 l 6.1,-149.88 c 2.7,-67.12 55.5,-120.12 121.4,-125.1 l -509,0.9 c 61.7,8.92 110,60.4 112.4,124.55" /></g><g
         transform="scale(1.44395)"
         id="g266"><path
           id="path268"
           style="fill:#b6e4fc;fill-opacity:1;fill-rule:nonzero;stroke:none"
           d="m 15859.8,6979.03 5.7,-149.64 c 0,-91.56 -47.1,-181.38 -104.1,-253.06 -47.6,-59.9 -72.9,-138.23 -63.3,-222.65 15.7,-138.02 127.4,-249.46 265.5,-264.69 182.2,-20.22 336.4,121.89 336.4,300.01 0,69.74 -23.7,133.87 -63.4,184.98 -57,72.99 -107.4,162.82 -107.4,255.39 l 6,150 c 2.7,67.14 55.7,120.24 121.6,125.19 l -509.5,-0.89 c 61.8,-8.93 110.1,-60.45 112.5,-124.64" /></g><g
         transform="scale(1.1581)"
         id="g270"><path
           id="path272"
           style="fill:#b6e4fc;fill-opacity:1;fill-rule:nonzero;stroke:none"
           d="m 15762.1,8349.77 h -5283.4 c -297.1,0 -537.8,-240.74 -537.8,-537.78 V 2528.44 c 0,-296.95 240.7,-537.77 537.8,-537.77 h 5283.4 c 297.1,0 537.9,240.82 537.9,537.77 v 5283.55 c 0,297.04 -240.8,537.78 -537.9,537.78" /></g><path
         id="path274"
         style="fill:#b6e4fc;fill-opacity:1;fill-rule:nonzero;stroke:none"
         d="m 15015.2,2269.6 8.2,-216.1 c 0,-132.2 -68,-261.9 -150.3,-365.4 -68.7,-86.5 -105.3,-199.6 -91.4,-321.5 22.7,-199.3 184,-360.1 383.3,-382.198 263.1,-29.101 485.8,175.998 485.8,433.198 0,100.7 -34.3,193.4 -91.7,267.1 -82.1,105.5 -155,235.1 -155,368.8 l 8.7,216.6 c 4,96.9 80.3,173.6 175.6,180.7 l -735.7,-1.2 c 89.2,-12.9 159,-87.3 162.5,-180" /><g
         transform="scale(1.26148)"
         id="g276"><path
           id="path278"
           style="fill:#ffffff;fill-opacity:1;fill-rule:nonzero;stroke:none"
           d="m 15075.4,10535.6 18.6,0.7 c 145.2,0 287.6,-74.6 401.2,-165 95,-75.5 219.2,-115.6 353.1,-100.4 218.9,24.9 395.5,202 419.7,421 32,288.8 -193.4,533.4 -475.7,533.4 -110.6,0 -212.3,-37.6 -293.3,-100.7 -115.9,-90.2 -258.2,-170.3 -405,-170.3 l -18.6,0.8 v -419.5" /></g><g
         transform="scale(1.23578)"
         id="g280"><path
           id="path282"
           style="fill:#fbe9dc;fill-opacity:1;fill-rule:nonzero;stroke:none"
           d="m 15236.4,10808.5 174.9,6.6 c 106.9,0 211.9,-55 295.6,-121.6 70,-55.6 161.6,-85.2 260.2,-74 161.3,18.4 291.5,148.9 309.3,310.2 23.6,212.9 -142.4,393.1 -350.6,393.1 -81.5,0 -156.4,-27.7 -216,-74.2 -85.4,-66.4 -190.4,-125.5 -298.5,-125.5 l -175.3,7.1 c -78.4,3.2 -140.5,65 -146.2,142.1 l 1,-595.3 c 10.4,72.2 70.6,128.6 145.6,131.5" /></g><path
         id="path284"
         style="fill:#ffffff;fill-opacity:1;fill-rule:nonzero;stroke:none"
         d="m 14561.1,9188.1 c 31.4,-276.1 254.8,-498.9 531,-529.5 364.4,-40.3 672.9,243.9 672.9,600.2 0,139.5 -47.4,267.8 -127,369.9 -7.8,10 -15.3,20.5 -22.9,30.8 h -907.7 c -6.6,-8.7 -13,-17.6 -19.7,-26.1 -95.2,-119.7 -145.8,-276.4 -126.6,-445.3" /><path
         id="path286"
         style="fill:#ffffff;fill-opacity:1;fill-rule:nonzero;stroke:none"
         d="m 11969.5,5530.2 c 276.1,31.4 498.9,254.8 529.5,531 40.3,364.4 -243.9,672.8 -600.2,672.8 -139.5,0 -267.8,-47.4 -369.9,-126.9 -10,-7.8 -20.5,-15.3 -30.9,-23 v -907.7 c 8.7,-6.5 17.7,-12.9 26.1,-19.6 119.8,-95.2 276.5,-145.9 445.4,-126.6" /><g
         transform="scale(1.25375)"
         id="g288"><path
           id="path290"
           style="fill:#ffffff;fill-opacity:1;fill-rule:nonzero;stroke:none"
           d="m 15845.6,4249.1 c 220.1,25.12 397.8,203.31 422.3,423.61 32.1,290.65 -194.6,536.63 -478.8,536.63 -111.2,0 -213.5,-37.81 -295,-101.22 -8,-6.22 -16.4,-12.2 -24.6,-18.34 v -723.99 c 7,-5.19 14.1,-10.29 20.8,-15.64 95.6,-75.93 220.6,-116.37 355.3,-101.05" /></g><path
         id="path292"
         style="fill:#fbe9dc;fill-opacity:1;fill-rule:nonzero;stroke:none"
         d="m 14940.7,10172.9 8.2,-216.06 c 0,-132.23 -68,-261.94 -150.3,-365.44 -68.7,-86.5 -105.3,-199.6 -91.4,-321.5 22.7,-199.3 184,-360.1 383.4,-382.2 263,-29.1 485.7,176.1 485.7,433.2 0,100.8 -34.2,193.4 -91.6,267.1 -82.2,105.5 -155.1,235.1 -155.1,368.81 l 8.8,216.59 c 3.9,96.9 80.3,173.6 175.5,180.8 l -735.7,-1.3 c 89.3,-12.9 159,-87.3 162.5,-180" /><path
         id="path294"
         style="fill:#f9eddc;fill-opacity:1;fill-rule:nonzero;stroke:none"
         d="m 11021.6,5956.1 216.1,8.2 c 132.2,0 261.9,-68 365.4,-150.3 86.5,-68.8 199.6,-105.3 321.5,-91.4 199.3,22.6 360.2,183.9 382.2,383.3 29.2,263.1 -176,485.8 -433.2,485.8 -100.7,0 -193.3,-34.3 -267,-91.7 -105.5,-82.1 -235.1,-155.1 -368.9,-155.1 l -216.6,8.8 c -96.9,3.9 -173.6,80.3 -180.7,175.6 l 1.3,-735.8 c 12.9,89.3 87.3,159.1 179.9,162.6" /><g
         transform="scale(1.23578)"
         id="g296"><path
           id="path298"
           style="fill:#b6e4fc;fill-opacity:1;fill-rule:nonzero;stroke:none"
           d="m 15236.4,4645.73 174.9,6.64 c 106.9,0 211.9,-54.95 295.6,-121.54 70,-55.68 161.6,-85.21 260.2,-73.97 161.3,18.29 291.5,148.82 309.3,310.17 23.6,212.91 -142.4,393.03 -350.6,393.03 -81.5,0 -156.4,-27.67 -216,-74.12 -85.4,-66.43 -190.4,-125.51 -298.5,-125.51 l -175.3,7.13 c -78.4,3.15 -140.5,64.98 -146.2,142.09 l 1,-595.41 c 10.4,72.26 70.6,128.66 145.6,131.49" /></g><g
         transform="scale(1.0325)"
         id="g300"><path
           id="path302"
           style="fill:#452a51;fill-opacity:1;fill-rule:nonzero;stroke:none"
           d="m 14133.6,4084.18 c 0,171.33 51.8,303.53 155.5,396.61 103.8,93.07 256.4,139.66 458.1,139.66 193.8,0 342.6,-47.07 446.4,-141.02 103.6,-94.04 155.5,-225.76 155.5,-395.25 0,-169.4 -53.8,-300.63 -161.4,-393.71 -107.6,-93.07 -254.5,-139.66 -440.5,-139.66 -192,0 -342.2,46.1 -450.8,138.21 -108.6,92.2 -162.8,223.92 -162.8,395.16 z m 125,977.53 v 240.19 c 0,182.48 38.8,336.57 116.4,462.28 77.4,125.62 215.2,248.04 412.8,367.27 157.1,94.91 270,180.53 338.8,256.95 68.8,76.32 103.3,163.78 103.3,262.47 0,78.25 -36.9,140.14 -110.5,185.76 -73.7,45.62 -169.7,68.38 -287.9,68.38 -292.8,0 -634.9,-99.56 -1026.5,-298.79 l -404.2,759.61 c 482.7,264.41 986.8,396.61 1512.1,396.61 432.3,0 771.6,-91.23 1017.8,-273.7 246.1,-182.47 369.3,-431.09 369.3,-745.67 0,-225.28 -54.8,-420.34 -164.4,-585.08 -109.5,-164.85 -284.4,-320.78 -524.8,-467.8 -203.6,-126.69 -331,-219.28 -382.4,-277.97 -51.4,-58.59 -77.1,-128.04 -77.1,-208.04 v -142.47 h -892.7" /></g></g></g></svg>